<mxfile host="app.diagrams.net" agent="Mozilla/5.0 (Macintosh; Intel Mac OS X 10_15_7) AppleWebKit/537.36 (KHTML, like Gecko) Chrome/133.0.0.0 Safari/537.36" version="26.1.1">
  <diagram name="페이지-1" id="RGZb9sVW60oWClTF88Vn">
    <mxGraphModel dx="3243" dy="1121" grid="1" gridSize="10" guides="1" tooltips="1" connect="1" arrows="1" fold="1" page="1" pageScale="1" pageWidth="1169" pageHeight="827" math="0" shadow="0">
      <root>
        <mxCell id="0" />
        <mxCell id="1" parent="0" />
        <mxCell id="eAcRxFsb8eFu9DP4cesu-8" style="edgeStyle=orthogonalEdgeStyle;rounded=0;orthogonalLoop=1;jettySize=auto;html=1;exitX=0;exitY=0.5;exitDx=0;exitDy=0;endArrow=none;startFill=0;" edge="1" parent="1" source="eAcRxFsb8eFu9DP4cesu-1" target="eAcRxFsb8eFu9DP4cesu-7">
          <mxGeometry relative="1" as="geometry" />
        </mxCell>
        <mxCell id="eAcRxFsb8eFu9DP4cesu-1" value="회원" style="rounded=0;whiteSpace=wrap;html=1;" vertex="1" parent="1">
          <mxGeometry x="250" y="140" width="150" height="70" as="geometry" />
        </mxCell>
        <mxCell id="eAcRxFsb8eFu9DP4cesu-18" style="edgeStyle=orthogonalEdgeStyle;rounded=0;orthogonalLoop=1;jettySize=auto;html=1;exitX=0.5;exitY=1;exitDx=0;exitDy=0;" edge="1" parent="1" source="eAcRxFsb8eFu9DP4cesu-2" target="eAcRxFsb8eFu9DP4cesu-3">
          <mxGeometry relative="1" as="geometry" />
        </mxCell>
        <mxCell id="eAcRxFsb8eFu9DP4cesu-23" style="edgeStyle=orthogonalEdgeStyle;rounded=0;orthogonalLoop=1;jettySize=auto;html=1;exitX=0.5;exitY=0;exitDx=0;exitDy=0;" edge="1" parent="1" source="eAcRxFsb8eFu9DP4cesu-2" target="eAcRxFsb8eFu9DP4cesu-1">
          <mxGeometry relative="1" as="geometry" />
        </mxCell>
        <mxCell id="eAcRxFsb8eFu9DP4cesu-24" style="edgeStyle=orthogonalEdgeStyle;rounded=0;orthogonalLoop=1;jettySize=auto;html=1;exitX=1;exitY=0.5;exitDx=0;exitDy=0;endArrow=none;startFill=0;" edge="1" parent="1" source="eAcRxFsb8eFu9DP4cesu-2" target="eAcRxFsb8eFu9DP4cesu-5">
          <mxGeometry relative="1" as="geometry" />
        </mxCell>
        <mxCell id="eAcRxFsb8eFu9DP4cesu-2" value="수강" style="rounded=0;whiteSpace=wrap;html=1;" vertex="1" parent="1">
          <mxGeometry x="250" y="280" width="150" height="70" as="geometry" />
        </mxCell>
        <mxCell id="eAcRxFsb8eFu9DP4cesu-27" style="edgeStyle=orthogonalEdgeStyle;rounded=0;orthogonalLoop=1;jettySize=auto;html=1;exitX=1;exitY=0.5;exitDx=0;exitDy=0;entryX=0;entryY=0.5;entryDx=0;entryDy=0;endArrow=none;startFill=0;" edge="1" parent="1" source="eAcRxFsb8eFu9DP4cesu-3" target="eAcRxFsb8eFu9DP4cesu-4">
          <mxGeometry relative="1" as="geometry" />
        </mxCell>
        <mxCell id="eAcRxFsb8eFu9DP4cesu-30" style="edgeStyle=orthogonalEdgeStyle;rounded=0;orthogonalLoop=1;jettySize=auto;html=1;exitX=0.5;exitY=1;exitDx=0;exitDy=0;entryX=0;entryY=0.5;entryDx=0;entryDy=0;endArrow=none;startFill=0;" edge="1" parent="1" source="eAcRxFsb8eFu9DP4cesu-3" target="eAcRxFsb8eFu9DP4cesu-6">
          <mxGeometry relative="1" as="geometry" />
        </mxCell>
        <mxCell id="eAcRxFsb8eFu9DP4cesu-3" value="강의" style="rounded=0;whiteSpace=wrap;html=1;" vertex="1" parent="1">
          <mxGeometry x="250" y="430" width="150" height="70" as="geometry" />
        </mxCell>
        <mxCell id="eAcRxFsb8eFu9DP4cesu-4" value="수업" style="rounded=0;whiteSpace=wrap;html=1;" vertex="1" parent="1">
          <mxGeometry x="510" y="430" width="150" height="70" as="geometry" />
        </mxCell>
        <mxCell id="eAcRxFsb8eFu9DP4cesu-5" value="진도" style="rounded=0;whiteSpace=wrap;html=1;" vertex="1" parent="1">
          <mxGeometry x="510" y="280" width="150" height="70" as="geometry" />
        </mxCell>
        <mxCell id="eAcRxFsb8eFu9DP4cesu-33" style="edgeStyle=orthogonalEdgeStyle;rounded=0;orthogonalLoop=1;jettySize=auto;html=1;exitX=0.5;exitY=0;exitDx=0;exitDy=0;endArrow=none;startFill=0;" edge="1" parent="1" source="eAcRxFsb8eFu9DP4cesu-6" target="eAcRxFsb8eFu9DP4cesu-4">
          <mxGeometry relative="1" as="geometry" />
        </mxCell>
        <mxCell id="eAcRxFsb8eFu9DP4cesu-6" value="섹션" style="rounded=0;whiteSpace=wrap;html=1;" vertex="1" parent="1">
          <mxGeometry x="510" y="580" width="150" height="70" as="geometry" />
        </mxCell>
        <mxCell id="eAcRxFsb8eFu9DP4cesu-14" style="edgeStyle=orthogonalEdgeStyle;rounded=0;orthogonalLoop=1;jettySize=auto;html=1;exitX=0.5;exitY=1;exitDx=0;exitDy=0;entryX=0;entryY=0.5;entryDx=0;entryDy=0;endArrow=none;startFill=0;" edge="1" parent="1" source="eAcRxFsb8eFu9DP4cesu-7" target="eAcRxFsb8eFu9DP4cesu-3">
          <mxGeometry relative="1" as="geometry" />
        </mxCell>
        <mxCell id="eAcRxFsb8eFu9DP4cesu-7" value="강사" style="rounded=0;whiteSpace=wrap;html=1;" vertex="1" parent="1">
          <mxGeometry x="-30" y="280" width="150" height="70" as="geometry" />
        </mxCell>
        <mxCell id="eAcRxFsb8eFu9DP4cesu-11" value="1" style="text;html=1;align=center;verticalAlign=middle;resizable=0;points=[];autosize=1;strokeColor=none;fillColor=none;" vertex="1" parent="1">
          <mxGeometry x="215" y="148" width="30" height="30" as="geometry" />
        </mxCell>
        <mxCell id="eAcRxFsb8eFu9DP4cesu-12" value="0..1" style="text;html=1;align=center;verticalAlign=middle;resizable=0;points=[];autosize=1;strokeColor=none;fillColor=none;" vertex="1" parent="1">
          <mxGeometry x="5" y="250" width="40" height="30" as="geometry" />
        </mxCell>
        <mxCell id="eAcRxFsb8eFu9DP4cesu-13" value="1" style="text;html=1;align=center;verticalAlign=middle;resizable=0;points=[];autosize=1;strokeColor=none;fillColor=none;" vertex="1" parent="1">
          <mxGeometry x="10" y="350" width="30" height="30" as="geometry" />
        </mxCell>
        <mxCell id="eAcRxFsb8eFu9DP4cesu-15" value="0..*" style="text;html=1;align=center;verticalAlign=middle;resizable=0;points=[];autosize=1;strokeColor=none;fillColor=none;" vertex="1" parent="1">
          <mxGeometry x="210" y="440" width="40" height="30" as="geometry" />
        </mxCell>
        <mxCell id="eAcRxFsb8eFu9DP4cesu-16" value="0..*" style="text;html=1;align=center;verticalAlign=middle;resizable=0;points=[];autosize=1;strokeColor=none;fillColor=none;" vertex="1" parent="1">
          <mxGeometry x="290" y="350" width="40" height="30" as="geometry" />
        </mxCell>
        <mxCell id="eAcRxFsb8eFu9DP4cesu-19" value="1" style="text;html=1;align=center;verticalAlign=middle;resizable=0;points=[];autosize=1;strokeColor=none;fillColor=none;" vertex="1" parent="1">
          <mxGeometry x="295" y="400" width="30" height="30" as="geometry" />
        </mxCell>
        <mxCell id="eAcRxFsb8eFu9DP4cesu-20" value="0..*" style="text;html=1;align=center;verticalAlign=middle;resizable=0;points=[];autosize=1;strokeColor=none;fillColor=none;" vertex="1" parent="1">
          <mxGeometry x="285" y="250" width="40" height="30" as="geometry" />
        </mxCell>
        <mxCell id="eAcRxFsb8eFu9DP4cesu-21" value="1" style="text;html=1;align=center;verticalAlign=middle;resizable=0;points=[];autosize=1;strokeColor=none;fillColor=none;" vertex="1" parent="1">
          <mxGeometry x="295" y="210" width="30" height="30" as="geometry" />
        </mxCell>
        <mxCell id="eAcRxFsb8eFu9DP4cesu-25" value="1" style="text;html=1;align=center;verticalAlign=middle;resizable=0;points=[];autosize=1;strokeColor=none;fillColor=none;" vertex="1" parent="1">
          <mxGeometry x="400" y="280" width="30" height="30" as="geometry" />
        </mxCell>
        <mxCell id="eAcRxFsb8eFu9DP4cesu-26" value="1" style="text;html=1;align=center;verticalAlign=middle;resizable=0;points=[];autosize=1;strokeColor=none;fillColor=none;" vertex="1" parent="1">
          <mxGeometry x="480" y="280" width="30" height="30" as="geometry" />
        </mxCell>
        <mxCell id="eAcRxFsb8eFu9DP4cesu-28" value="1" style="text;html=1;align=center;verticalAlign=middle;resizable=0;points=[];autosize=1;strokeColor=none;fillColor=none;" vertex="1" parent="1">
          <mxGeometry x="400" y="440" width="30" height="30" as="geometry" />
        </mxCell>
        <mxCell id="eAcRxFsb8eFu9DP4cesu-29" value="0..*" style="text;html=1;align=center;verticalAlign=middle;resizable=0;points=[];autosize=1;strokeColor=none;fillColor=none;" vertex="1" parent="1">
          <mxGeometry x="470" y="440" width="40" height="30" as="geometry" />
        </mxCell>
        <mxCell id="eAcRxFsb8eFu9DP4cesu-31" value="0..*" style="text;html=1;align=center;verticalAlign=middle;resizable=0;points=[];autosize=1;strokeColor=none;fillColor=none;" vertex="1" parent="1">
          <mxGeometry x="470" y="590" width="40" height="30" as="geometry" />
        </mxCell>
        <mxCell id="eAcRxFsb8eFu9DP4cesu-32" value="1" style="text;html=1;align=center;verticalAlign=middle;resizable=0;points=[];autosize=1;strokeColor=none;fillColor=none;" vertex="1" parent="1">
          <mxGeometry x="320" y="500" width="30" height="30" as="geometry" />
        </mxCell>
        <mxCell id="eAcRxFsb8eFu9DP4cesu-34" value="0..*" style="text;html=1;align=center;verticalAlign=middle;resizable=0;points=[];autosize=1;strokeColor=none;fillColor=none;" vertex="1" parent="1">
          <mxGeometry x="545" y="500" width="40" height="30" as="geometry" />
        </mxCell>
        <mxCell id="eAcRxFsb8eFu9DP4cesu-35" value="1" style="text;html=1;align=center;verticalAlign=middle;resizable=0;points=[];autosize=1;strokeColor=none;fillColor=none;" vertex="1" parent="1">
          <mxGeometry x="550" y="550" width="30" height="30" as="geometry" />
        </mxCell>
      </root>
    </mxGraphModel>
  </diagram>
</mxfile>
